<svg width="203" height="20" viewBox="0 0 203 20" fill="none" xmlns="http://www.w3.org/2000/svg">
<rect width="83" height="20" rx="10" fill="#222426"/>
<circle cx="14" cy="10" r="6" fill="#2D3833"/>
<rect x="10" y="6" width="8" height="8" rx="4" fill="#57E0A6"/>
<path d="M24.9375 14V6.86133H26.1094V14H24.9375ZM30.6943 8.49219C31.3031 8.49219 31.7767 8.65007 32.1152 8.96582C32.457 9.27832 32.6279 9.78125 32.6279 10.4746V14H31.4805V10.6895C31.4805 10.2695 31.3942 9.9554 31.2217 9.74707C31.0492 9.53548 30.7822 9.42969 30.4209 9.42969C29.8968 9.42969 29.5322 9.59082 29.3271 9.91309C29.1253 10.2354 29.0244 10.7025 29.0244 11.3145V14H27.877V8.59473H28.7705L28.9316 9.32715H28.9951C29.1123 9.13835 29.2572 8.98372 29.4297 8.86328C29.6055 8.73958 29.8008 8.64681 30.0156 8.58496C30.2337 8.52311 30.46 8.49219 30.6943 8.49219ZM36.2461 13.1699C36.3958 13.1699 36.5439 13.1569 36.6904 13.1309C36.8369 13.1016 36.9704 13.0674 37.0908 13.0283V13.8975C36.9639 13.9528 36.7995 14 36.5977 14.0391C36.3958 14.0781 36.1859 14.0977 35.9678 14.0977C35.6618 14.0977 35.3867 14.0472 35.1426 13.9463C34.8984 13.8421 34.7048 13.6647 34.5615 13.4141C34.4183 13.1634 34.3467 12.8167 34.3467 12.374V9.46875H33.6094V8.95605L34.4004 8.55078L34.7764 7.39355H35.499V8.59473H37.0469V9.46875H35.499V12.3594C35.499 12.6328 35.5674 12.8363 35.7041 12.9697C35.8408 13.1032 36.0215 13.1699 36.2461 13.1699ZM40.3428 8.49219C40.8245 8.49219 41.238 8.59147 41.583 8.79004C41.9281 8.98861 42.1934 9.27018 42.3789 9.63477C42.5645 9.99935 42.6572 10.4355 42.6572 10.9434V11.5586H39.0488C39.0618 12.0827 39.2018 12.4863 39.4688 12.7695C39.7389 13.0527 40.1165 13.1943 40.6016 13.1943C40.9466 13.1943 41.2559 13.1618 41.5293 13.0967C41.806 13.0283 42.0908 12.929 42.3838 12.7988V13.7314C42.1136 13.8584 41.8385 13.9512 41.5586 14.0098C41.2786 14.0684 40.9434 14.0977 40.5527 14.0977C40.0221 14.0977 39.555 13.9951 39.1514 13.79C38.751 13.5817 38.4368 13.2725 38.209 12.8623C37.9844 12.4521 37.8721 11.9427 37.8721 11.334C37.8721 10.7285 37.9746 10.2142 38.1797 9.79102C38.3848 9.36784 38.6729 9.04557 39.0439 8.82422C39.415 8.60286 39.848 8.49219 40.3428 8.49219ZM40.3428 9.35645C39.9814 9.35645 39.6885 9.47363 39.4639 9.70801C39.2425 9.94238 39.1123 10.2858 39.0732 10.7383H41.5342C41.5309 10.4681 41.4854 10.2288 41.3975 10.0205C41.3128 9.81217 41.1826 9.64941 41.0068 9.53223C40.8343 9.41504 40.613 9.35645 40.3428 9.35645ZM46.6904 8.49219C46.7816 8.49219 46.8809 8.49707 46.9883 8.50684C47.0957 8.5166 47.1885 8.52962 47.2666 8.5459L47.1592 9.62012C47.0908 9.60059 47.0062 9.58594 46.9053 9.57617C46.8076 9.56641 46.7197 9.56152 46.6416 9.56152C46.4365 9.56152 46.2412 9.5957 46.0557 9.66406C45.8701 9.72917 45.7057 9.83008 45.5625 9.9668C45.4193 10.1003 45.307 10.2679 45.2256 10.4697C45.1442 10.6715 45.1035 10.9059 45.1035 11.1729V14H43.9512V8.59473H44.8496L45.0059 9.54688H45.0596C45.167 9.35482 45.3005 9.17904 45.46 9.01953C45.6195 8.86003 45.8018 8.73307 46.0068 8.63867C46.2152 8.54102 46.443 8.49219 46.6904 8.49219ZM50.4209 8.49219C50.9027 8.49219 51.3161 8.59147 51.6611 8.79004C52.0062 8.98861 52.2715 9.27018 52.457 9.63477C52.6426 9.99935 52.7354 10.4355 52.7354 10.9434V11.5586H49.127C49.14 12.0827 49.2799 12.4863 49.5469 12.7695C49.8171 13.0527 50.1947 13.1943 50.6797 13.1943C51.0247 13.1943 51.334 13.1618 51.6074 13.0967C51.8841 13.0283 52.1689 12.929 52.4619 12.7988V13.7314C52.1917 13.8584 51.9167 13.9512 51.6367 14.0098C51.3568 14.0684 51.0215 14.0977 50.6309 14.0977C50.1003 14.0977 49.6331 13.9951 49.2295 13.79C48.8291 13.5817 48.515 13.2725 48.2871 12.8623C48.0625 12.4521 47.9502 11.9427 47.9502 11.334C47.9502 10.7285 48.0527 10.2142 48.2578 9.79102C48.4629 9.36784 48.751 9.04557 49.1221 8.82422C49.4932 8.60286 49.9261 8.49219 50.4209 8.49219ZM50.4209 9.35645C50.0596 9.35645 49.7666 9.47363 49.542 9.70801C49.3206 9.94238 49.1904 10.2858 49.1514 10.7383H51.6123C51.609 10.4681 51.5635 10.2288 51.4756 10.0205C51.391 9.81217 51.2607 9.64941 51.085 9.53223C50.9124 9.41504 50.6911 9.35645 50.4209 9.35645ZM57.6621 12.457C57.6621 12.8118 57.5758 13.1113 57.4033 13.3555C57.2308 13.5996 56.9785 13.7852 56.6465 13.9121C56.3177 14.0358 55.9141 14.0977 55.4355 14.0977C55.0579 14.0977 54.7324 14.07 54.459 14.0146C54.1888 13.9626 53.9333 13.8812 53.6924 13.7705V12.7793C53.9495 12.8997 54.2376 13.0039 54.5566 13.0918C54.8789 13.1797 55.1833 13.2236 55.4697 13.2236C55.8473 13.2236 56.1191 13.165 56.2852 13.0479C56.4512 12.9274 56.5342 12.7679 56.5342 12.5693C56.5342 12.4521 56.5 12.348 56.4316 12.2568C56.3665 12.1624 56.2428 12.0664 56.0605 11.9688C55.8815 11.8678 55.6178 11.7474 55.2695 11.6074C54.9277 11.4707 54.6396 11.334 54.4053 11.1973C54.1709 11.0605 53.9935 10.8962 53.873 10.7041C53.7526 10.5088 53.6924 10.2598 53.6924 9.95703C53.6924 9.47852 53.8812 9.11556 54.2588 8.86816C54.6396 8.61751 55.1426 8.49219 55.7676 8.49219C56.0996 8.49219 56.4121 8.52637 56.7051 8.59473C57.0013 8.65983 57.291 8.75586 57.5742 8.88281L57.2129 9.74707C56.9688 9.63965 56.723 9.55176 56.4756 9.4834C56.2314 9.41178 55.9824 9.37598 55.7285 9.37598C55.4323 9.37598 55.2061 9.42155 55.0498 9.5127C54.8968 9.60384 54.8203 9.73405 54.8203 9.90332C54.8203 10.0303 54.8577 10.1377 54.9326 10.2256C55.0075 10.3135 55.1361 10.4014 55.3184 10.4893C55.5039 10.5771 55.7611 10.6862 56.0898 10.8164C56.4121 10.9401 56.6904 11.0703 56.9248 11.207C57.1624 11.3405 57.3447 11.5049 57.4717 11.7002C57.5986 11.8955 57.6621 12.1478 57.6621 12.457ZM60.9141 13.1699C61.0638 13.1699 61.2119 13.1569 61.3584 13.1309C61.5049 13.1016 61.6383 13.0674 61.7588 13.0283V13.8975C61.6318 13.9528 61.4674 14 61.2656 14.0391C61.0638 14.0781 60.8538 14.0977 60.6357 14.0977C60.3298 14.0977 60.0547 14.0472 59.8105 13.9463C59.5664 13.8421 59.3727 13.6647 59.2295 13.4141C59.0863 13.1634 59.0146 12.8167 59.0146 12.374V9.46875H58.2773V8.95605L59.0684 8.55078L59.4443 7.39355H60.167V8.59473H61.7148V9.46875H60.167V12.3594C60.167 12.6328 60.2354 12.8363 60.3721 12.9697C60.5088 13.1032 60.6895 13.1699 60.9141 13.1699ZM65.0107 8.49219C65.4925 8.49219 65.9059 8.59147 66.251 8.79004C66.596 8.98861 66.8613 9.27018 67.0469 9.63477C67.2324 9.99935 67.3252 10.4355 67.3252 10.9434V11.5586H63.7168C63.7298 12.0827 63.8698 12.4863 64.1367 12.7695C64.4069 13.0527 64.7845 13.1943 65.2695 13.1943C65.6146 13.1943 65.9238 13.1618 66.1973 13.0967C66.474 13.0283 66.7588 12.929 67.0518 12.7988V13.7314C66.7816 13.8584 66.5065 13.9512 66.2266 14.0098C65.9466 14.0684 65.6113 14.0977 65.2207 14.0977C64.6901 14.0977 64.223 13.9951 63.8193 13.79C63.4189 13.5817 63.1048 13.2725 62.877 12.8623C62.6523 12.4521 62.54 11.9427 62.54 11.334C62.54 10.7285 62.6426 10.2142 62.8477 9.79102C63.0527 9.36784 63.3408 9.04557 63.7119 8.82422C64.083 8.60286 64.516 8.49219 65.0107 8.49219ZM65.0107 9.35645C64.6494 9.35645 64.3564 9.47363 64.1318 9.70801C63.9105 9.94238 63.7803 10.2858 63.7412 10.7383H66.2021C66.1989 10.4681 66.1533 10.2288 66.0654 10.0205C65.9808 9.81217 65.8506 9.64941 65.6748 9.53223C65.5023 9.41504 65.2809 9.35645 65.0107 9.35645ZM70.4355 14.0977C69.791 14.0977 69.2734 13.8633 68.8828 13.3945C68.4954 12.9225 68.3018 12.2275 68.3018 11.3096C68.3018 10.3818 68.4987 9.68034 68.8926 9.20508C69.2897 8.72982 69.8122 8.49219 70.46 8.49219C70.7334 8.49219 70.9727 8.52962 71.1777 8.60449C71.3828 8.67611 71.5586 8.77376 71.7051 8.89746C71.8548 9.02116 71.9818 9.15951 72.0859 9.3125H72.1396C72.1234 9.21159 72.1038 9.06673 72.0811 8.87793C72.0615 8.68587 72.0518 8.50846 72.0518 8.3457V6.40234H73.2041V14H72.3057L72.1006 13.2627H72.0518C71.9541 13.4189 71.8304 13.5605 71.6807 13.6875C71.5342 13.8112 71.3584 13.9105 71.1533 13.9854C70.9515 14.0602 70.7122 14.0977 70.4355 14.0977ZM70.7578 13.165C71.2493 13.165 71.596 13.0234 71.7979 12.7402C71.9997 12.457 72.1038 12.0322 72.1104 11.4658V11.3145C72.1104 10.709 72.0127 10.2451 71.8174 9.92285C71.6221 9.59733 71.2656 9.43457 70.748 9.43457C70.3346 9.43457 70.0189 9.60221 69.8008 9.9375C69.5859 10.2695 69.4785 10.7334 69.4785 11.3291C69.4785 11.9248 69.5859 12.3805 69.8008 12.6963C70.0189 13.0088 70.3379 13.165 70.7578 13.165Z" fill="#57E0A6"/>
<rect x="91" width="111.994" height="20" rx="10" fill="#222426"/>
<path d="M106.156 16C106.375 16 106.562 15.9169 106.717 15.7507C106.872 15.5883 107.002 15.3711 107.108 15.0991L110.841 5.32578C110.89 5.19736 110.928 5.07838 110.955 4.96884C110.981 4.8593 110.994 4.75543 110.994 4.65722C110.994 4.45703 110.936 4.29839 110.819 4.1813C110.702 4.06043 110.543 4 110.343 4C110.248 4 110.144 4.01511 110.031 4.04533C109.918 4.07177 109.797 4.10765 109.669 4.15297L99.8612 7.90935C99.6157 8.00378 99.4098 8.12842 99.2436 8.28329C99.0812 8.43815 99 8.62512 99 8.84419C99 9.11237 99.0907 9.31067 99.272 9.43909C99.4533 9.56374 99.6818 9.66761 99.9575 9.75071L102.898 10.6516C103.094 10.712 103.259 10.7365 103.391 10.7252C103.523 10.7101 103.659 10.6383 103.799 10.5099L110.105 4.66289C110.143 4.6289 110.182 4.6119 110.224 4.6119C110.269 4.6119 110.309 4.62701 110.343 4.65722C110.373 4.68744 110.388 4.72521 110.388 4.77054C110.388 4.81209 110.369 4.85175 110.331 4.88952L104.507 11.2125C104.386 11.3409 104.316 11.4731 104.297 11.6091C104.282 11.745 104.303 11.9131 104.36 12.1133L105.232 14.9915C105.319 15.2823 105.427 15.5222 105.555 15.711C105.684 15.9037 105.884 16 106.156 16Z" fill="#AEAEAE"/>
<path d="M118.974 7.75488C118.632 7.75488 118.326 7.81673 118.056 7.94043C117.789 8.06413 117.562 8.24316 117.377 8.47754C117.191 8.70866 117.05 8.99023 116.952 9.32227C116.854 9.65104 116.806 10.0221 116.806 10.4355C116.806 10.9889 116.884 11.4658 117.04 11.8662C117.196 12.2633 117.434 12.5693 117.753 12.7842C118.072 12.9958 118.476 13.1016 118.964 13.1016C119.267 13.1016 119.561 13.0723 119.848 13.0137C120.134 12.9551 120.43 12.8753 120.736 12.7744V13.7705C120.447 13.8844 120.154 13.9674 119.857 14.0195C119.561 14.0716 119.219 14.0977 118.832 14.0977C118.103 14.0977 117.497 13.9463 117.016 13.6436C116.537 13.3408 116.179 12.9144 115.941 12.3643C115.707 11.8141 115.59 11.1696 115.59 10.4307C115.59 9.8903 115.665 9.39551 115.814 8.94629C115.964 8.49707 116.182 8.1097 116.469 7.78418C116.755 7.4554 117.108 7.20312 117.528 7.02734C117.951 6.84831 118.435 6.75879 118.979 6.75879C119.337 6.75879 119.688 6.79948 120.033 6.88086C120.382 6.95898 120.704 7.07129 121 7.21777L120.59 8.18457C120.342 8.06738 120.084 7.96647 119.813 7.88184C119.543 7.7972 119.263 7.75488 118.974 7.75488ZM124.271 8.49219C124.955 8.49219 125.471 8.64355 125.819 8.94629C126.171 9.24902 126.347 9.72103 126.347 10.3623V14H125.531L125.312 13.2334H125.272C125.119 13.4287 124.962 13.5898 124.799 13.7168C124.636 13.8438 124.447 13.9382 124.232 14C124.021 14.0651 123.762 14.0977 123.456 14.0977C123.134 14.0977 122.846 14.0391 122.592 13.9219C122.338 13.8014 122.138 13.6191 121.991 13.375C121.845 13.1309 121.771 12.8216 121.771 12.4473C121.771 11.8906 121.978 11.4723 122.392 11.1924C122.808 10.9124 123.437 10.7578 124.276 10.7285L125.214 10.6943V10.4111C125.214 10.0368 125.126 9.76986 124.95 9.61035C124.778 9.45085 124.534 9.37109 124.218 9.37109C123.948 9.37109 123.686 9.41016 123.432 9.48828C123.178 9.56641 122.93 9.66243 122.689 9.77637L122.318 8.96582C122.582 8.82585 122.882 8.71191 123.217 8.62402C123.555 8.53613 123.907 8.49219 124.271 8.49219ZM125.209 11.417L124.511 11.4414C123.938 11.4609 123.536 11.5586 123.305 11.7344C123.074 11.9102 122.958 12.151 122.958 12.457C122.958 12.724 123.038 12.9193 123.197 13.043C123.357 13.1634 123.567 13.2236 123.827 13.2236C124.224 13.2236 124.553 13.1113 124.813 12.8867C125.077 12.6589 125.209 12.3252 125.209 11.8857V11.417ZM134.062 8.49219C134.667 8.49219 135.123 8.64844 135.429 8.96094C135.738 9.27344 135.893 9.77474 135.893 10.4648V14H134.745V10.6699C134.745 10.2598 134.665 9.95052 134.506 9.74219C134.346 9.53385 134.104 9.42969 133.778 9.42969C133.323 9.42969 132.994 9.57617 132.792 9.86914C132.593 10.1589 132.494 10.5804 132.494 11.1338V14H131.347V10.6699C131.347 10.3965 131.311 10.1686 131.239 9.98633C131.171 9.80078 131.065 9.66243 130.922 9.57129C130.779 9.47689 130.598 9.42969 130.38 9.42969C130.064 9.42969 129.812 9.5013 129.623 9.64453C129.438 9.78776 129.304 9.99935 129.223 10.2793C129.141 10.556 129.101 10.8962 129.101 11.2998V14H127.953V8.59473H128.847L129.008 9.32227H129.071C129.182 9.13346 129.319 8.97884 129.481 8.8584C129.647 8.7347 129.831 8.64355 130.033 8.58496C130.235 8.52311 130.445 8.49219 130.663 8.49219C131.067 8.49219 131.407 8.5638 131.684 8.70703C131.96 8.84701 132.167 9.06185 132.304 9.35156H132.392C132.561 9.05859 132.797 8.84212 133.1 8.70215C133.402 8.56217 133.723 8.49219 134.062 8.49219ZM140.268 8.49219C140.909 8.49219 141.423 8.72656 141.811 9.19531C142.201 9.66406 142.396 10.3607 142.396 11.2852C142.396 11.8971 142.305 12.4131 142.123 12.833C141.944 13.2497 141.692 13.5654 141.366 13.7803C141.044 13.9919 140.668 14.0977 140.238 14.0977C139.965 14.0977 139.727 14.0618 139.525 13.9902C139.324 13.9186 139.151 13.8258 139.008 13.7119C138.865 13.5947 138.744 13.4678 138.646 13.3311H138.578C138.594 13.4613 138.609 13.6061 138.622 13.7656C138.638 13.9219 138.646 14.0651 138.646 14.1953V16.3975H137.494V8.59473H138.432L138.593 9.3418H138.646C138.747 9.1888 138.869 9.0472 139.013 8.91699C139.159 8.78678 139.335 8.68424 139.54 8.60938C139.748 8.53125 139.991 8.49219 140.268 8.49219ZM139.96 9.42969C139.644 9.42969 139.39 9.49316 139.198 9.62012C139.009 9.74382 138.871 9.93099 138.783 10.1816C138.699 10.4323 138.653 10.7464 138.646 11.124V11.2852C138.646 11.6855 138.687 12.0257 138.769 12.3057C138.853 12.5824 138.992 12.7939 139.184 12.9404C139.379 13.0837 139.643 13.1553 139.975 13.1553C140.255 13.1553 140.486 13.0788 140.668 12.9258C140.854 12.7728 140.992 12.5547 141.083 12.2715C141.174 11.9883 141.22 11.6546 141.22 11.2705C141.22 10.6878 141.116 10.2354 140.907 9.91309C140.702 9.59082 140.386 9.42969 139.96 9.42969ZM145.844 8.49219C146.527 8.49219 147.043 8.64355 147.392 8.94629C147.743 9.24902 147.919 9.72103 147.919 10.3623V14H147.104L146.884 13.2334H146.845C146.692 13.4287 146.534 13.5898 146.371 13.7168C146.208 13.8438 146.02 13.9382 145.805 14C145.593 14.0651 145.334 14.0977 145.028 14.0977C144.706 14.0977 144.418 14.0391 144.164 13.9219C143.91 13.8014 143.71 13.6191 143.563 13.375C143.417 13.1309 143.344 12.8216 143.344 12.4473C143.344 11.8906 143.55 11.4723 143.964 11.1924C144.381 10.9124 145.009 10.7578 145.849 10.7285L146.786 10.6943V10.4111C146.786 10.0368 146.698 9.76986 146.522 9.61035C146.35 9.45085 146.106 9.37109 145.79 9.37109C145.52 9.37109 145.258 9.41016 145.004 9.48828C144.75 9.56641 144.503 9.66243 144.262 9.77637L143.891 8.96582C144.154 8.82585 144.454 8.71191 144.789 8.62402C145.128 8.53613 145.479 8.49219 145.844 8.49219ZM146.781 11.417L146.083 11.4414C145.51 11.4609 145.108 11.5586 144.877 11.7344C144.646 11.9102 144.53 12.151 144.53 12.457C144.53 12.724 144.61 12.9193 144.77 13.043C144.929 13.1634 145.139 13.2236 145.399 13.2236C145.797 13.2236 146.125 13.1113 146.386 12.8867C146.649 12.6589 146.781 12.3252 146.781 11.8857V11.417ZM150.673 8.59473V14H149.525V8.59473H150.673ZM150.106 6.52441C150.282 6.52441 150.434 6.57161 150.561 6.66602C150.691 6.76042 150.756 6.92318 150.756 7.1543C150.756 7.38216 150.691 7.54492 150.561 7.64258C150.434 7.73698 150.282 7.78418 150.106 7.78418C149.924 7.78418 149.77 7.73698 149.643 7.64258C149.519 7.54492 149.457 7.38216 149.457 7.1543C149.457 6.92318 149.519 6.76042 149.643 6.66602C149.77 6.57161 149.924 6.52441 150.106 6.52441ZM153.861 16.4023C153.129 16.4023 152.567 16.2705 152.177 16.0068C151.786 15.7432 151.591 15.3737 151.591 14.8984C151.591 14.5664 151.695 14.2848 151.903 14.0537C152.112 13.8258 152.41 13.668 152.797 13.5801C152.65 13.515 152.523 13.4141 152.416 13.2773C152.312 13.1374 152.26 12.9827 152.26 12.8135C152.26 12.6117 152.317 12.4391 152.431 12.2959C152.545 12.1527 152.715 12.0143 152.943 11.8809C152.66 11.7604 152.432 11.5651 152.26 11.2949C152.09 11.0215 152.006 10.7008 152.006 10.333C152.006 9.94238 152.089 9.61035 152.255 9.33691C152.421 9.06022 152.663 8.85026 152.982 8.70703C153.301 8.56055 153.687 8.4873 154.14 8.4873C154.237 8.4873 154.343 8.49382 154.457 8.50684C154.574 8.5166 154.682 8.52962 154.779 8.5459C154.88 8.55892 154.957 8.57357 155.009 8.58984H156.879V9.22949L155.961 9.40039C156.049 9.52409 156.119 9.66569 156.171 9.8252C156.223 9.98145 156.249 10.1523 156.249 10.3379C156.249 10.8978 156.055 11.3389 155.668 11.6611C155.284 11.9801 154.753 12.1396 154.076 12.1396C153.913 12.1331 153.756 12.1201 153.603 12.1006C153.485 12.1722 153.396 12.252 153.334 12.3398C153.272 12.4245 153.241 12.5205 153.241 12.6279C153.241 12.7158 153.272 12.7874 153.334 12.8428C153.396 12.8949 153.487 12.9339 153.607 12.96C153.731 12.986 153.881 12.999 154.057 12.999H154.989C155.582 12.999 156.034 13.1243 156.347 13.375C156.659 13.6257 156.815 13.9935 156.815 14.4785C156.815 15.0938 156.562 15.5674 156.054 15.8994C155.546 16.2347 154.815 16.4023 153.861 16.4023ZM153.905 15.5967C154.306 15.5967 154.643 15.5576 154.916 15.4795C155.189 15.4014 155.396 15.2891 155.536 15.1426C155.676 14.9993 155.746 14.8285 155.746 14.6299C155.746 14.4541 155.702 14.319 155.614 14.2246C155.526 14.1302 155.395 14.0651 155.219 14.0293C155.043 13.9935 154.825 13.9756 154.564 13.9756H153.715C153.503 13.9756 153.316 14.0081 153.153 14.0732C152.991 14.1416 152.864 14.2393 152.772 14.3662C152.685 14.4932 152.641 14.6462 152.641 14.8252C152.641 15.0726 152.75 15.263 152.968 15.3965C153.189 15.5299 153.502 15.5967 153.905 15.5967ZM154.13 11.3877C154.465 11.3877 154.714 11.2965 154.877 11.1143C155.04 10.9287 155.121 10.6683 155.121 10.333C155.121 9.96842 155.036 9.69499 154.867 9.5127C154.701 9.3304 154.454 9.23926 154.125 9.23926C153.803 9.23926 153.557 9.33203 153.388 9.51758C153.222 9.70312 153.139 9.97819 153.139 10.3428C153.139 10.6715 153.222 10.9287 153.388 11.1143C153.557 11.2965 153.804 11.3877 154.13 11.3877ZM160.683 8.49219C161.291 8.49219 161.765 8.65007 162.104 8.96582C162.445 9.27832 162.616 9.78125 162.616 10.4746V14H161.469V10.6895C161.469 10.2695 161.382 9.9554 161.21 9.74707C161.037 9.53548 160.771 9.42969 160.409 9.42969C159.885 9.42969 159.521 9.59082 159.315 9.91309C159.114 10.2354 159.013 10.7025 159.013 11.3145V14H157.865V8.59473H158.759L158.92 9.32715H158.983C159.101 9.13835 159.245 8.98372 159.418 8.86328C159.594 8.73958 159.789 8.64681 160.004 8.58496C160.222 8.52311 160.448 8.49219 160.683 8.49219ZM172.895 14H171.454L167.958 8.30176H167.914C167.927 8.49382 167.938 8.69727 167.948 8.91211C167.961 9.12695 167.971 9.34831 167.978 9.57617C167.987 9.80404 167.995 10.0352 168.002 10.2695V14H166.938V6.86133H168.368L171.859 12.5205H171.894C171.887 12.3545 171.879 12.1641 171.869 11.9492C171.859 11.7344 171.85 11.513 171.84 11.2852C171.833 11.054 171.828 10.8311 171.825 10.6162V6.86133H172.895V14ZM176.771 8.49219C177.455 8.49219 177.971 8.64355 178.319 8.94629C178.671 9.24902 178.847 9.72103 178.847 10.3623V14H178.031L177.812 13.2334H177.772C177.619 13.4287 177.462 13.5898 177.299 13.7168C177.136 13.8438 176.947 13.9382 176.732 14C176.521 14.0651 176.262 14.0977 175.956 14.0977C175.634 14.0977 175.346 14.0391 175.092 13.9219C174.838 13.8014 174.638 13.6191 174.491 13.375C174.345 13.1309 174.271 12.8216 174.271 12.4473C174.271 11.8906 174.478 11.4723 174.892 11.1924C175.308 10.9124 175.937 10.7578 176.776 10.7285L177.714 10.6943V10.4111C177.714 10.0368 177.626 9.76986 177.45 9.61035C177.278 9.45085 177.034 9.37109 176.718 9.37109C176.448 9.37109 176.186 9.41016 175.932 9.48828C175.678 9.56641 175.43 9.66243 175.189 9.77637L174.818 8.96582C175.082 8.82585 175.382 8.71191 175.717 8.62402C176.055 8.53613 176.407 8.49219 176.771 8.49219ZM177.709 11.417L177.011 11.4414C176.438 11.4609 176.036 11.5586 175.805 11.7344C175.574 11.9102 175.458 12.151 175.458 12.457C175.458 12.724 175.538 12.9193 175.697 13.043C175.857 13.1634 176.067 13.2236 176.327 13.2236C176.724 13.2236 177.053 13.1113 177.313 12.8867C177.577 12.6589 177.709 12.3252 177.709 11.8857V11.417ZM186.562 8.49219C187.167 8.49219 187.623 8.64844 187.929 8.96094C188.238 9.27344 188.393 9.77474 188.393 10.4648V14H187.245V10.6699C187.245 10.2598 187.165 9.95052 187.006 9.74219C186.846 9.53385 186.604 9.42969 186.278 9.42969C185.823 9.42969 185.494 9.57617 185.292 9.86914C185.093 10.1589 184.994 10.5804 184.994 11.1338V14H183.847V10.6699C183.847 10.3965 183.811 10.1686 183.739 9.98633C183.671 9.80078 183.565 9.66243 183.422 9.57129C183.279 9.47689 183.098 9.42969 182.88 9.42969C182.564 9.42969 182.312 9.5013 182.123 9.64453C181.938 9.78776 181.804 9.99935 181.723 10.2793C181.641 10.556 181.601 10.8962 181.601 11.2998V14H180.453V8.59473H181.347L181.508 9.32227H181.571C181.682 9.13346 181.819 8.97884 181.981 8.8584C182.147 8.7347 182.331 8.64355 182.533 8.58496C182.735 8.52311 182.945 8.49219 183.163 8.49219C183.567 8.49219 183.907 8.5638 184.184 8.70703C184.46 8.84701 184.667 9.06185 184.804 9.35156H184.892C185.061 9.05859 185.297 8.84212 185.6 8.70215C185.902 8.56217 186.223 8.49219 186.562 8.49219ZM192.147 8.49219C192.629 8.49219 193.043 8.59147 193.388 8.79004C193.733 8.98861 193.998 9.27018 194.184 9.63477C194.369 9.99935 194.462 10.4355 194.462 10.9434V11.5586H190.854C190.867 12.0827 191.007 12.4863 191.273 12.7695C191.544 13.0527 191.921 13.1943 192.406 13.1943C192.751 13.1943 193.061 13.1618 193.334 13.0967C193.611 13.0283 193.896 12.929 194.188 12.7988V13.7314C193.918 13.8584 193.643 13.9512 193.363 14.0098C193.083 14.0684 192.748 14.0977 192.357 14.0977C191.827 14.0977 191.36 13.9951 190.956 13.79C190.556 13.5817 190.242 13.2725 190.014 12.8623C189.789 12.4521 189.677 11.9427 189.677 11.334C189.677 10.7285 189.779 10.2142 189.984 9.79102C190.189 9.36784 190.478 9.04557 190.849 8.82422C191.22 8.60286 191.653 8.49219 192.147 8.49219ZM192.147 9.35645C191.786 9.35645 191.493 9.47363 191.269 9.70801C191.047 9.94238 190.917 10.2858 190.878 10.7383H193.339C193.336 10.4681 193.29 10.2288 193.202 10.0205C193.118 9.81217 192.987 9.64941 192.812 9.53223C192.639 9.41504 192.418 9.35645 192.147 9.35645Z" fill="white"/>
</svg>
